<?xml version="1.0" standalone="no"?>
<svg xmlns="http://www.w3.org/2000/svg" version="1.1" width="220" height="220">
	<!-- Created with https://api.qrserver.com (QR Code API, see goQR.me/api for information) -->
	<title>QR Code</title>
	<desc>{&quot;@context&quot;:&quot;https://open.charging.cloud/contexts/chargeTransparency/live/link/1.0&quot;,&quot;transports&quot;:[{&quot;type&quot;:&quot;https&quot;,&quot;url&quot;:&quot;https://api1.example.com/chargingSessions/1234567890/transparency/live?token=abcdef&quot;}]}
</desc>
	<rect style="fill:rgb(255, 255, 255);fill-opacity:1" x="0" y="0" width="220" height="220" />
	<g id="elements">
		<path style="fill:rgb(0, 0, 0)" d="M 4,4 l 4,0 0,4 -4,0 z M 8,4 l 4,0 0,4 -4,0 z M 12,4 l 4,0 0,4 -4,0 z M 16,4 l 4,0 0,4 -4,0 z M 20,4 l 4,0 0,4 -4,0 z M 24,4 l 4,0 0,4 -4,0 z M 28,4 l 4,0 0,4 -4,0 z M 40,4 l 4,0 0,4 -4,0 z M 44,4 l 4,0 0,4 -4,0 z M 48,4 l 4,0 0,4 -4,0 z M 52,4 l 4,0 0,4 -4,0 z M 68,4 l 4,0 0,4 -4,0 z M 72,4 l 4,0 0,4 -4,0 z M 76,4 l 4,0 0,4 -4,0 z M 88,4 l 4,0 0,4 -4,0 z M 96,4 l 4,0 0,4 -4,0 z M 104,4 l 4,0 0,4 -4,0 z M 108,4 l 4,0 0,4 -4,0 z M 112,4 l 4,0 0,4 -4,0 z M 116,4 l 4,0 0,4 -4,0 z M 120,4 l 4,0 0,4 -4,0 z M 124,4 l 4,0 0,4 -4,0 z M 136,4 l 4,0 0,4 -4,0 z M 144,4 l 4,0 0,4 -4,0 z M 152,4 l 4,0 0,4 -4,0 z M 164,4 l 4,0 0,4 -4,0 z M 172,4 l 4,0 0,4 -4,0 z M 188,4 l 4,0 0,4 -4,0 z M 192,4 l 4,0 0,4 -4,0 z M 196,4 l 4,0 0,4 -4,0 z M 200,4 l 4,0 0,4 -4,0 z M 204,4 l 4,0 0,4 -4,0 z M 208,4 l 4,0 0,4 -4,0 z M 212,4 l 4,0 0,4 -4,0 z M 4,8 l 4,0 0,4 -4,0 z M 28,8 l 4,0 0,4 -4,0 z M 36,8 l 4,0 0,4 -4,0 z M 40,8 l 4,0 0,4 -4,0 z M 44,8 l 4,0 0,4 -4,0 z M 48,8 l 4,0 0,4 -4,0 z M 52,8 l 4,0 0,4 -4,0 z M 56,8 l 4,0 0,4 -4,0 z M 64,8 l 4,0 0,4 -4,0 z M 68,8 l 4,0 0,4 -4,0 z M 80,8 l 4,0 0,4 -4,0 z M 92,8 l 4,0 0,4 -4,0 z M 100,8 l 4,0 0,4 -4,0 z M 112,8 l 4,0 0,4 -4,0 z M 136,8 l 4,0 0,4 -4,0 z M 140,8 l 4,0 0,4 -4,0 z M 148,8 l 4,0 0,4 -4,0 z M 156,8 l 4,0 0,4 -4,0 z M 160,8 l 4,0 0,4 -4,0 z M 172,8 l 4,0 0,4 -4,0 z M 176,8 l 4,0 0,4 -4,0 z M 188,8 l 4,0 0,4 -4,0 z M 212,8 l 4,0 0,4 -4,0 z M 4,12 l 4,0 0,4 -4,0 z M 12,12 l 4,0 0,4 -4,0 z M 16,12 l 4,0 0,4 -4,0 z M 20,12 l 4,0 0,4 -4,0 z M 28,12 l 4,0 0,4 -4,0 z M 40,12 l 4,0 0,4 -4,0 z M 52,12 l 4,0 0,4 -4,0 z M 68,12 l 4,0 0,4 -4,0 z M 88,12 l 4,0 0,4 -4,0 z M 96,12 l 4,0 0,4 -4,0 z M 100,12 l 4,0 0,4 -4,0 z M 104,12 l 4,0 0,4 -4,0 z M 108,12 l 4,0 0,4 -4,0 z M 120,12 l 4,0 0,4 -4,0 z M 124,12 l 4,0 0,4 -4,0 z M 132,12 l 4,0 0,4 -4,0 z M 136,12 l 4,0 0,4 -4,0 z M 156,12 l 4,0 0,4 -4,0 z M 160,12 l 4,0 0,4 -4,0 z M 164,12 l 4,0 0,4 -4,0 z M 176,12 l 4,0 0,4 -4,0 z M 188,12 l 4,0 0,4 -4,0 z M 196,12 l 4,0 0,4 -4,0 z M 200,12 l 4,0 0,4 -4,0 z M 204,12 l 4,0 0,4 -4,0 z M 212,12 l 4,0 0,4 -4,0 z M 4,16 l 4,0 0,4 -4,0 z M 12,16 l 4,0 0,4 -4,0 z M 16,16 l 4,0 0,4 -4,0 z M 20,16 l 4,0 0,4 -4,0 z M 28,16 l 4,0 0,4 -4,0 z M 36,16 l 4,0 0,4 -4,0 z M 44,16 l 4,0 0,4 -4,0 z M 48,16 l 4,0 0,4 -4,0 z M 52,16 l 4,0 0,4 -4,0 z M 56,16 l 4,0 0,4 -4,0 z M 68,16 l 4,0 0,4 -4,0 z M 72,16 l 4,0 0,4 -4,0 z M 76,16 l 4,0 0,4 -4,0 z M 80,16 l 4,0 0,4 -4,0 z M 84,16 l 4,0 0,4 -4,0 z M 88,16 l 4,0 0,4 -4,0 z M 128,16 l 4,0 0,4 -4,0 z M 132,16 l 4,0 0,4 -4,0 z M 136,16 l 4,0 0,4 -4,0 z M 140,16 l 4,0 0,4 -4,0 z M 144,16 l 4,0 0,4 -4,0 z M 148,16 l 4,0 0,4 -4,0 z M 152,16 l 4,0 0,4 -4,0 z M 168,16 l 4,0 0,4 -4,0 z M 172,16 l 4,0 0,4 -4,0 z M 180,16 l 4,0 0,4 -4,0 z M 188,16 l 4,0 0,4 -4,0 z M 196,16 l 4,0 0,4 -4,0 z M 200,16 l 4,0 0,4 -4,0 z M 204,16 l 4,0 0,4 -4,0 z M 212,16 l 4,0 0,4 -4,0 z M 4,20 l 4,0 0,4 -4,0 z M 12,20 l 4,0 0,4 -4,0 z M 16,20 l 4,0 0,4 -4,0 z M 20,20 l 4,0 0,4 -4,0 z M 28,20 l 4,0 0,4 -4,0 z M 40,20 l 4,0 0,4 -4,0 z M 48,20 l 4,0 0,4 -4,0 z M 52,20 l 4,0 0,4 -4,0 z M 56,20 l 4,0 0,4 -4,0 z M 60,20 l 4,0 0,4 -4,0 z M 72,20 l 4,0 0,4 -4,0 z M 76,20 l 4,0 0,4 -4,0 z M 88,20 l 4,0 0,4 -4,0 z M 92,20 l 4,0 0,4 -4,0 z M 100,20 l 4,0 0,4 -4,0 z M 104,20 l 4,0 0,4 -4,0 z M 108,20 l 4,0 0,4 -4,0 z M 112,20 l 4,0 0,4 -4,0 z M 116,20 l 4,0 0,4 -4,0 z M 120,20 l 4,0 0,4 -4,0 z M 136,20 l 4,0 0,4 -4,0 z M 144,20 l 4,0 0,4 -4,0 z M 148,20 l 4,0 0,4 -4,0 z M 152,20 l 4,0 0,4 -4,0 z M 164,20 l 4,0 0,4 -4,0 z M 168,20 l 4,0 0,4 -4,0 z M 172,20 l 4,0 0,4 -4,0 z M 188,20 l 4,0 0,4 -4,0 z M 196,20 l 4,0 0,4 -4,0 z M 200,20 l 4,0 0,4 -4,0 z M 204,20 l 4,0 0,4 -4,0 z M 212,20 l 4,0 0,4 -4,0 z M 4,24 l 4,0 0,4 -4,0 z M 28,24 l 4,0 0,4 -4,0 z M 36,24 l 4,0 0,4 -4,0 z M 48,24 l 4,0 0,4 -4,0 z M 52,24 l 4,0 0,4 -4,0 z M 64,24 l 4,0 0,4 -4,0 z M 72,24 l 4,0 0,4 -4,0 z M 84,24 l 4,0 0,4 -4,0 z M 100,24 l 4,0 0,4 -4,0 z M 116,24 l 4,0 0,4 -4,0 z M 128,24 l 4,0 0,4 -4,0 z M 132,24 l 4,0 0,4 -4,0 z M 136,24 l 4,0 0,4 -4,0 z M 144,24 l 4,0 0,4 -4,0 z M 156,24 l 4,0 0,4 -4,0 z M 172,24 l 4,0 0,4 -4,0 z M 188,24 l 4,0 0,4 -4,0 z M 212,24 l 4,0 0,4 -4,0 z M 4,28 l 4,0 0,4 -4,0 z M 8,28 l 4,0 0,4 -4,0 z M 12,28 l 4,0 0,4 -4,0 z M 16,28 l 4,0 0,4 -4,0 z M 20,28 l 4,0 0,4 -4,0 z M 24,28 l 4,0 0,4 -4,0 z M 28,28 l 4,0 0,4 -4,0 z M 36,28 l 4,0 0,4 -4,0 z M 44,28 l 4,0 0,4 -4,0 z M 52,28 l 4,0 0,4 -4,0 z M 60,28 l 4,0 0,4 -4,0 z M 68,28 l 4,0 0,4 -4,0 z M 76,28 l 4,0 0,4 -4,0 z M 84,28 l 4,0 0,4 -4,0 z M 92,28 l 4,0 0,4 -4,0 z M 100,28 l 4,0 0,4 -4,0 z M 108,28 l 4,0 0,4 -4,0 z M 116,28 l 4,0 0,4 -4,0 z M 124,28 l 4,0 0,4 -4,0 z M 132,28 l 4,0 0,4 -4,0 z M 140,28 l 4,0 0,4 -4,0 z M 148,28 l 4,0 0,4 -4,0 z M 156,28 l 4,0 0,4 -4,0 z M 164,28 l 4,0 0,4 -4,0 z M 172,28 l 4,0 0,4 -4,0 z M 180,28 l 4,0 0,4 -4,0 z M 188,28 l 4,0 0,4 -4,0 z M 192,28 l 4,0 0,4 -4,0 z M 196,28 l 4,0 0,4 -4,0 z M 200,28 l 4,0 0,4 -4,0 z M 204,28 l 4,0 0,4 -4,0 z M 208,28 l 4,0 0,4 -4,0 z M 212,28 l 4,0 0,4 -4,0 z M 48,32 l 4,0 0,4 -4,0 z M 56,32 l 4,0 0,4 -4,0 z M 88,32 l 4,0 0,4 -4,0 z M 92,32 l 4,0 0,4 -4,0 z M 100,32 l 4,0 0,4 -4,0 z M 116,32 l 4,0 0,4 -4,0 z M 124,32 l 4,0 0,4 -4,0 z M 128,32 l 4,0 0,4 -4,0 z M 132,32 l 4,0 0,4 -4,0 z M 140,32 l 4,0 0,4 -4,0 z M 144,32 l 4,0 0,4 -4,0 z M 152,32 l 4,0 0,4 -4,0 z M 156,32 l 4,0 0,4 -4,0 z M 160,32 l 4,0 0,4 -4,0 z M 164,32 l 4,0 0,4 -4,0 z M 168,32 l 4,0 0,4 -4,0 z M 172,32 l 4,0 0,4 -4,0 z M 4,36 l 4,0 0,4 -4,0 z M 8,36 l 4,0 0,4 -4,0 z M 12,36 l 4,0 0,4 -4,0 z M 16,36 l 4,0 0,4 -4,0 z M 20,36 l 4,0 0,4 -4,0 z M 28,36 l 4,0 0,4 -4,0 z M 32,36 l 4,0 0,4 -4,0 z M 36,36 l 4,0 0,4 -4,0 z M 52,36 l 4,0 0,4 -4,0 z M 72,36 l 4,0 0,4 -4,0 z M 92,36 l 4,0 0,4 -4,0 z M 96,36 l 4,0 0,4 -4,0 z M 100,36 l 4,0 0,4 -4,0 z M 104,36 l 4,0 0,4 -4,0 z M 108,36 l 4,0 0,4 -4,0 z M 112,36 l 4,0 0,4 -4,0 z M 116,36 l 4,0 0,4 -4,0 z M 120,36 l 4,0 0,4 -4,0 z M 124,36 l 4,0 0,4 -4,0 z M 128,36 l 4,0 0,4 -4,0 z M 140,36 l 4,0 0,4 -4,0 z M 144,36 l 4,0 0,4 -4,0 z M 148,36 l 4,0 0,4 -4,0 z M 168,36 l 4,0 0,4 -4,0 z M 172,36 l 4,0 0,4 -4,0 z M 180,36 l 4,0 0,4 -4,0 z M 184,36 l 4,0 0,4 -4,0 z M 192,36 l 4,0 0,4 -4,0 z M 200,36 l 4,0 0,4 -4,0 z M 208,36 l 4,0 0,4 -4,0 z M 12,40 l 4,0 0,4 -4,0 z M 16,40 l 4,0 0,4 -4,0 z M 24,40 l 4,0 0,4 -4,0 z M 32,40 l 4,0 0,4 -4,0 z M 40,40 l 4,0 0,4 -4,0 z M 44,40 l 4,0 0,4 -4,0 z M 48,40 l 4,0 0,4 -4,0 z M 56,40 l 4,0 0,4 -4,0 z M 64,40 l 4,0 0,4 -4,0 z M 76,40 l 4,0 0,4 -4,0 z M 80,40 l 4,0 0,4 -4,0 z M 84,40 l 4,0 0,4 -4,0 z M 88,40 l 4,0 0,4 -4,0 z M 100,40 l 4,0 0,4 -4,0 z M 104,40 l 4,0 0,4 -4,0 z M 108,40 l 4,0 0,4 -4,0 z M 112,40 l 4,0 0,4 -4,0 z M 116,40 l 4,0 0,4 -4,0 z M 120,40 l 4,0 0,4 -4,0 z M 124,40 l 4,0 0,4 -4,0 z M 128,40 l 4,0 0,4 -4,0 z M 132,40 l 4,0 0,4 -4,0 z M 148,40 l 4,0 0,4 -4,0 z M 152,40 l 4,0 0,4 -4,0 z M 160,40 l 4,0 0,4 -4,0 z M 164,40 l 4,0 0,4 -4,0 z M 168,40 l 4,0 0,4 -4,0 z M 172,40 l 4,0 0,4 -4,0 z M 176,40 l 4,0 0,4 -4,0 z M 196,40 l 4,0 0,4 -4,0 z M 204,40 l 4,0 0,4 -4,0 z M 208,40 l 4,0 0,4 -4,0 z M 212,40 l 4,0 0,4 -4,0 z M 4,44 l 4,0 0,4 -4,0 z M 8,44 l 4,0 0,4 -4,0 z M 24,44 l 4,0 0,4 -4,0 z M 28,44 l 4,0 0,4 -4,0 z M 36,44 l 4,0 0,4 -4,0 z M 40,44 l 4,0 0,4 -4,0 z M 48,44 l 4,0 0,4 -4,0 z M 52,44 l 4,0 0,4 -4,0 z M 84,44 l 4,0 0,4 -4,0 z M 88,44 l 4,0 0,4 -4,0 z M 100,44 l 4,0 0,4 -4,0 z M 104,44 l 4,0 0,4 -4,0 z M 108,44 l 4,0 0,4 -4,0 z M 116,44 l 4,0 0,4 -4,0 z M 120,44 l 4,0 0,4 -4,0 z M 136,44 l 4,0 0,4 -4,0 z M 140,44 l 4,0 0,4 -4,0 z M 144,44 l 4,0 0,4 -4,0 z M 148,44 l 4,0 0,4 -4,0 z M 156,44 l 4,0 0,4 -4,0 z M 164,44 l 4,0 0,4 -4,0 z M 188,44 l 4,0 0,4 -4,0 z M 204,44 l 4,0 0,4 -4,0 z M 8,48 l 4,0 0,4 -4,0 z M 20,48 l 4,0 0,4 -4,0 z M 24,48 l 4,0 0,4 -4,0 z M 32,48 l 4,0 0,4 -4,0 z M 44,48 l 4,0 0,4 -4,0 z M 48,48 l 4,0 0,4 -4,0 z M 64,48 l 4,0 0,4 -4,0 z M 72,48 l 4,0 0,4 -4,0 z M 80,48 l 4,0 0,4 -4,0 z M 84,48 l 4,0 0,4 -4,0 z M 88,48 l 4,0 0,4 -4,0 z M 92,48 l 4,0 0,4 -4,0 z M 96,48 l 4,0 0,4 -4,0 z M 104,48 l 4,0 0,4 -4,0 z M 112,48 l 4,0 0,4 -4,0 z M 116,48 l 4,0 0,4 -4,0 z M 124,48 l 4,0 0,4 -4,0 z M 128,48 l 4,0 0,4 -4,0 z M 148,48 l 4,0 0,4 -4,0 z M 152,48 l 4,0 0,4 -4,0 z M 156,48 l 4,0 0,4 -4,0 z M 160,48 l 4,0 0,4 -4,0 z M 164,48 l 4,0 0,4 -4,0 z M 168,48 l 4,0 0,4 -4,0 z M 184,48 l 4,0 0,4 -4,0 z M 212,48 l 4,0 0,4 -4,0 z M 4,52 l 4,0 0,4 -4,0 z M 16,52 l 4,0 0,4 -4,0 z M 24,52 l 4,0 0,4 -4,0 z M 28,52 l 4,0 0,4 -4,0 z M 32,52 l 4,0 0,4 -4,0 z M 36,52 l 4,0 0,4 -4,0 z M 48,52 l 4,0 0,4 -4,0 z M 56,52 l 4,0 0,4 -4,0 z M 68,52 l 4,0 0,4 -4,0 z M 72,52 l 4,0 0,4 -4,0 z M 76,52 l 4,0 0,4 -4,0 z M 84,52 l 4,0 0,4 -4,0 z M 108,52 l 4,0 0,4 -4,0 z M 112,52 l 4,0 0,4 -4,0 z M 124,52 l 4,0 0,4 -4,0 z M 128,52 l 4,0 0,4 -4,0 z M 132,52 l 4,0 0,4 -4,0 z M 148,52 l 4,0 0,4 -4,0 z M 156,52 l 4,0 0,4 -4,0 z M 172,52 l 4,0 0,4 -4,0 z M 176,52 l 4,0 0,4 -4,0 z M 180,52 l 4,0 0,4 -4,0 z M 192,52 l 4,0 0,4 -4,0 z M 196,52 l 4,0 0,4 -4,0 z M 204,52 l 4,0 0,4 -4,0 z M 208,52 l 4,0 0,4 -4,0 z M 4,56 l 4,0 0,4 -4,0 z M 8,56 l 4,0 0,4 -4,0 z M 16,56 l 4,0 0,4 -4,0 z M 20,56 l 4,0 0,4 -4,0 z M 44,56 l 4,0 0,4 -4,0 z M 56,56 l 4,0 0,4 -4,0 z M 60,56 l 4,0 0,4 -4,0 z M 72,56 l 4,0 0,4 -4,0 z M 92,56 l 4,0 0,4 -4,0 z M 100,56 l 4,0 0,4 -4,0 z M 108,56 l 4,0 0,4 -4,0 z M 112,56 l 4,0 0,4 -4,0 z M 116,56 l 4,0 0,4 -4,0 z M 120,56 l 4,0 0,4 -4,0 z M 132,56 l 4,0 0,4 -4,0 z M 136,56 l 4,0 0,4 -4,0 z M 148,56 l 4,0 0,4 -4,0 z M 152,56 l 4,0 0,4 -4,0 z M 160,56 l 4,0 0,4 -4,0 z M 164,56 l 4,0 0,4 -4,0 z M 168,56 l 4,0 0,4 -4,0 z M 172,56 l 4,0 0,4 -4,0 z M 176,56 l 4,0 0,4 -4,0 z M 192,56 l 4,0 0,4 -4,0 z M 200,56 l 4,0 0,4 -4,0 z M 204,56 l 4,0 0,4 -4,0 z M 212,56 l 4,0 0,4 -4,0 z M 8,60 l 4,0 0,4 -4,0 z M 16,60 l 4,0 0,4 -4,0 z M 24,60 l 4,0 0,4 -4,0 z M 28,60 l 4,0 0,4 -4,0 z M 32,60 l 4,0 0,4 -4,0 z M 36,60 l 4,0 0,4 -4,0 z M 44,60 l 4,0 0,4 -4,0 z M 48,60 l 4,0 0,4 -4,0 z M 56,60 l 4,0 0,4 -4,0 z M 60,60 l 4,0 0,4 -4,0 z M 64,60 l 4,0 0,4 -4,0 z M 76,60 l 4,0 0,4 -4,0 z M 80,60 l 4,0 0,4 -4,0 z M 84,60 l 4,0 0,4 -4,0 z M 88,60 l 4,0 0,4 -4,0 z M 92,60 l 4,0 0,4 -4,0 z M 108,60 l 4,0 0,4 -4,0 z M 124,60 l 4,0 0,4 -4,0 z M 136,60 l 4,0 0,4 -4,0 z M 148,60 l 4,0 0,4 -4,0 z M 156,60 l 4,0 0,4 -4,0 z M 160,60 l 4,0 0,4 -4,0 z M 176,60 l 4,0 0,4 -4,0 z M 188,60 l 4,0 0,4 -4,0 z M 192,60 l 4,0 0,4 -4,0 z M 200,60 l 4,0 0,4 -4,0 z M 204,60 l 4,0 0,4 -4,0 z M 208,60 l 4,0 0,4 -4,0 z M 16,64 l 4,0 0,4 -4,0 z M 20,64 l 4,0 0,4 -4,0 z M 40,64 l 4,0 0,4 -4,0 z M 44,64 l 4,0 0,4 -4,0 z M 60,64 l 4,0 0,4 -4,0 z M 64,64 l 4,0 0,4 -4,0 z M 68,64 l 4,0 0,4 -4,0 z M 72,64 l 4,0 0,4 -4,0 z M 76,64 l 4,0 0,4 -4,0 z M 88,64 l 4,0 0,4 -4,0 z M 100,64 l 4,0 0,4 -4,0 z M 104,64 l 4,0 0,4 -4,0 z M 112,64 l 4,0 0,4 -4,0 z M 116,64 l 4,0 0,4 -4,0 z M 124,64 l 4,0 0,4 -4,0 z M 128,64 l 4,0 0,4 -4,0 z M 132,64 l 4,0 0,4 -4,0 z M 136,64 l 4,0 0,4 -4,0 z M 144,64 l 4,0 0,4 -4,0 z M 152,64 l 4,0 0,4 -4,0 z M 156,64 l 4,0 0,4 -4,0 z M 160,64 l 4,0 0,4 -4,0 z M 164,64 l 4,0 0,4 -4,0 z M 168,64 l 4,0 0,4 -4,0 z M 176,64 l 4,0 0,4 -4,0 z M 180,64 l 4,0 0,4 -4,0 z M 200,64 l 4,0 0,4 -4,0 z M 208,64 l 4,0 0,4 -4,0 z M 212,64 l 4,0 0,4 -4,0 z M 16,68 l 4,0 0,4 -4,0 z M 20,68 l 4,0 0,4 -4,0 z M 24,68 l 4,0 0,4 -4,0 z M 28,68 l 4,0 0,4 -4,0 z M 44,68 l 4,0 0,4 -4,0 z M 48,68 l 4,0 0,4 -4,0 z M 56,68 l 4,0 0,4 -4,0 z M 60,68 l 4,0 0,4 -4,0 z M 64,68 l 4,0 0,4 -4,0 z M 76,68 l 4,0 0,4 -4,0 z M 80,68 l 4,0 0,4 -4,0 z M 92,68 l 4,0 0,4 -4,0 z M 100,68 l 4,0 0,4 -4,0 z M 104,68 l 4,0 0,4 -4,0 z M 108,68 l 4,0 0,4 -4,0 z M 128,68 l 4,0 0,4 -4,0 z M 140,68 l 4,0 0,4 -4,0 z M 144,68 l 4,0 0,4 -4,0 z M 148,68 l 4,0 0,4 -4,0 z M 152,68 l 4,0 0,4 -4,0 z M 156,68 l 4,0 0,4 -4,0 z M 160,68 l 4,0 0,4 -4,0 z M 176,68 l 4,0 0,4 -4,0 z M 180,68 l 4,0 0,4 -4,0 z M 184,68 l 4,0 0,4 -4,0 z M 192,68 l 4,0 0,4 -4,0 z M 196,68 l 4,0 0,4 -4,0 z M 204,68 l 4,0 0,4 -4,0 z M 208,68 l 4,0 0,4 -4,0 z M 16,72 l 4,0 0,4 -4,0 z M 32,72 l 4,0 0,4 -4,0 z M 36,72 l 4,0 0,4 -4,0 z M 44,72 l 4,0 0,4 -4,0 z M 52,72 l 4,0 0,4 -4,0 z M 68,72 l 4,0 0,4 -4,0 z M 72,72 l 4,0 0,4 -4,0 z M 76,72 l 4,0 0,4 -4,0 z M 88,72 l 4,0 0,4 -4,0 z M 100,72 l 4,0 0,4 -4,0 z M 104,72 l 4,0 0,4 -4,0 z M 108,72 l 4,0 0,4 -4,0 z M 120,72 l 4,0 0,4 -4,0 z M 124,72 l 4,0 0,4 -4,0 z M 132,72 l 4,0 0,4 -4,0 z M 148,72 l 4,0 0,4 -4,0 z M 152,72 l 4,0 0,4 -4,0 z M 164,72 l 4,0 0,4 -4,0 z M 172,72 l 4,0 0,4 -4,0 z M 176,72 l 4,0 0,4 -4,0 z M 208,72 l 4,0 0,4 -4,0 z M 212,72 l 4,0 0,4 -4,0 z M 4,76 l 4,0 0,4 -4,0 z M 8,76 l 4,0 0,4 -4,0 z M 12,76 l 4,0 0,4 -4,0 z M 16,76 l 4,0 0,4 -4,0 z M 28,76 l 4,0 0,4 -4,0 z M 36,76 l 4,0 0,4 -4,0 z M 40,76 l 4,0 0,4 -4,0 z M 44,76 l 4,0 0,4 -4,0 z M 64,76 l 4,0 0,4 -4,0 z M 68,76 l 4,0 0,4 -4,0 z M 80,76 l 4,0 0,4 -4,0 z M 100,76 l 4,0 0,4 -4,0 z M 116,76 l 4,0 0,4 -4,0 z M 128,76 l 4,0 0,4 -4,0 z M 132,76 l 4,0 0,4 -4,0 z M 136,76 l 4,0 0,4 -4,0 z M 140,76 l 4,0 0,4 -4,0 z M 152,76 l 4,0 0,4 -4,0 z M 156,76 l 4,0 0,4 -4,0 z M 176,76 l 4,0 0,4 -4,0 z M 180,76 l 4,0 0,4 -4,0 z M 188,76 l 4,0 0,4 -4,0 z M 196,76 l 4,0 0,4 -4,0 z M 204,76 l 4,0 0,4 -4,0 z M 8,80 l 4,0 0,4 -4,0 z M 12,80 l 4,0 0,4 -4,0 z M 16,80 l 4,0 0,4 -4,0 z M 20,80 l 4,0 0,4 -4,0 z M 24,80 l 4,0 0,4 -4,0 z M 32,80 l 4,0 0,4 -4,0 z M 56,80 l 4,0 0,4 -4,0 z M 60,80 l 4,0 0,4 -4,0 z M 68,80 l 4,0 0,4 -4,0 z M 72,80 l 4,0 0,4 -4,0 z M 88,80 l 4,0 0,4 -4,0 z M 96,80 l 4,0 0,4 -4,0 z M 104,80 l 4,0 0,4 -4,0 z M 112,80 l 4,0 0,4 -4,0 z M 124,80 l 4,0 0,4 -4,0 z M 140,80 l 4,0 0,4 -4,0 z M 152,80 l 4,0 0,4 -4,0 z M 164,80 l 4,0 0,4 -4,0 z M 168,80 l 4,0 0,4 -4,0 z M 172,80 l 4,0 0,4 -4,0 z M 176,80 l 4,0 0,4 -4,0 z M 180,80 l 4,0 0,4 -4,0 z M 184,80 l 4,0 0,4 -4,0 z M 200,80 l 4,0 0,4 -4,0 z M 208,80 l 4,0 0,4 -4,0 z M 12,84 l 4,0 0,4 -4,0 z M 16,84 l 4,0 0,4 -4,0 z M 28,84 l 4,0 0,4 -4,0 z M 36,84 l 4,0 0,4 -4,0 z M 40,84 l 4,0 0,4 -4,0 z M 44,84 l 4,0 0,4 -4,0 z M 64,84 l 4,0 0,4 -4,0 z M 68,84 l 4,0 0,4 -4,0 z M 76,84 l 4,0 0,4 -4,0 z M 80,84 l 4,0 0,4 -4,0 z M 84,84 l 4,0 0,4 -4,0 z M 108,84 l 4,0 0,4 -4,0 z M 112,84 l 4,0 0,4 -4,0 z M 116,84 l 4,0 0,4 -4,0 z M 128,84 l 4,0 0,4 -4,0 z M 132,84 l 4,0 0,4 -4,0 z M 140,84 l 4,0 0,4 -4,0 z M 148,84 l 4,0 0,4 -4,0 z M 152,84 l 4,0 0,4 -4,0 z M 156,84 l 4,0 0,4 -4,0 z M 168,84 l 4,0 0,4 -4,0 z M 172,84 l 4,0 0,4 -4,0 z M 180,84 l 4,0 0,4 -4,0 z M 184,84 l 4,0 0,4 -4,0 z M 196,84 l 4,0 0,4 -4,0 z M 204,84 l 4,0 0,4 -4,0 z M 208,84 l 4,0 0,4 -4,0 z M 4,88 l 4,0 0,4 -4,0 z M 16,88 l 4,0 0,4 -4,0 z M 20,88 l 4,0 0,4 -4,0 z M 36,88 l 4,0 0,4 -4,0 z M 40,88 l 4,0 0,4 -4,0 z M 48,88 l 4,0 0,4 -4,0 z M 52,88 l 4,0 0,4 -4,0 z M 60,88 l 4,0 0,4 -4,0 z M 80,88 l 4,0 0,4 -4,0 z M 92,88 l 4,0 0,4 -4,0 z M 104,88 l 4,0 0,4 -4,0 z M 108,88 l 4,0 0,4 -4,0 z M 116,88 l 4,0 0,4 -4,0 z M 120,88 l 4,0 0,4 -4,0 z M 144,88 l 4,0 0,4 -4,0 z M 152,88 l 4,0 0,4 -4,0 z M 172,88 l 4,0 0,4 -4,0 z M 176,88 l 4,0 0,4 -4,0 z M 192,88 l 4,0 0,4 -4,0 z M 200,88 l 4,0 0,4 -4,0 z M 204,88 l 4,0 0,4 -4,0 z M 208,88 l 4,0 0,4 -4,0 z M 212,88 l 4,0 0,4 -4,0 z M 8,92 l 4,0 0,4 -4,0 z M 16,92 l 4,0 0,4 -4,0 z M 20,92 l 4,0 0,4 -4,0 z M 28,92 l 4,0 0,4 -4,0 z M 32,92 l 4,0 0,4 -4,0 z M 36,92 l 4,0 0,4 -4,0 z M 40,92 l 4,0 0,4 -4,0 z M 48,92 l 4,0 0,4 -4,0 z M 64,92 l 4,0 0,4 -4,0 z M 68,92 l 4,0 0,4 -4,0 z M 72,92 l 4,0 0,4 -4,0 z M 88,92 l 4,0 0,4 -4,0 z M 92,92 l 4,0 0,4 -4,0 z M 96,92 l 4,0 0,4 -4,0 z M 108,92 l 4,0 0,4 -4,0 z M 128,92 l 4,0 0,4 -4,0 z M 136,92 l 4,0 0,4 -4,0 z M 140,92 l 4,0 0,4 -4,0 z M 148,92 l 4,0 0,4 -4,0 z M 152,92 l 4,0 0,4 -4,0 z M 160,92 l 4,0 0,4 -4,0 z M 176,92 l 4,0 0,4 -4,0 z M 184,92 l 4,0 0,4 -4,0 z M 188,92 l 4,0 0,4 -4,0 z M 192,92 l 4,0 0,4 -4,0 z M 204,92 l 4,0 0,4 -4,0 z M 208,92 l 4,0 0,4 -4,0 z M 4,96 l 4,0 0,4 -4,0 z M 12,96 l 4,0 0,4 -4,0 z M 16,96 l 4,0 0,4 -4,0 z M 24,96 l 4,0 0,4 -4,0 z M 44,96 l 4,0 0,4 -4,0 z M 56,96 l 4,0 0,4 -4,0 z M 64,96 l 4,0 0,4 -4,0 z M 80,96 l 4,0 0,4 -4,0 z M 88,96 l 4,0 0,4 -4,0 z M 92,96 l 4,0 0,4 -4,0 z M 100,96 l 4,0 0,4 -4,0 z M 104,96 l 4,0 0,4 -4,0 z M 108,96 l 4,0 0,4 -4,0 z M 120,96 l 4,0 0,4 -4,0 z M 124,96 l 4,0 0,4 -4,0 z M 132,96 l 4,0 0,4 -4,0 z M 136,96 l 4,0 0,4 -4,0 z M 140,96 l 4,0 0,4 -4,0 z M 144,96 l 4,0 0,4 -4,0 z M 152,96 l 4,0 0,4 -4,0 z M 160,96 l 4,0 0,4 -4,0 z M 164,96 l 4,0 0,4 -4,0 z M 168,96 l 4,0 0,4 -4,0 z M 200,96 l 4,0 0,4 -4,0 z M 208,96 l 4,0 0,4 -4,0 z M 4,100 l 4,0 0,4 -4,0 z M 8,100 l 4,0 0,4 -4,0 z M 20,100 l 4,0 0,4 -4,0 z M 24,100 l 4,0 0,4 -4,0 z M 28,100 l 4,0 0,4 -4,0 z M 32,100 l 4,0 0,4 -4,0 z M 36,100 l 4,0 0,4 -4,0 z M 48,100 l 4,0 0,4 -4,0 z M 52,100 l 4,0 0,4 -4,0 z M 72,100 l 4,0 0,4 -4,0 z M 92,100 l 4,0 0,4 -4,0 z M 100,100 l 4,0 0,4 -4,0 z M 104,100 l 4,0 0,4 -4,0 z M 108,100 l 4,0 0,4 -4,0 z M 112,100 l 4,0 0,4 -4,0 z M 116,100 l 4,0 0,4 -4,0 z M 120,100 l 4,0 0,4 -4,0 z M 124,100 l 4,0 0,4 -4,0 z M 128,100 l 4,0 0,4 -4,0 z M 136,100 l 4,0 0,4 -4,0 z M 144,100 l 4,0 0,4 -4,0 z M 148,100 l 4,0 0,4 -4,0 z M 152,100 l 4,0 0,4 -4,0 z M 180,100 l 4,0 0,4 -4,0 z M 184,100 l 4,0 0,4 -4,0 z M 188,100 l 4,0 0,4 -4,0 z M 192,100 l 4,0 0,4 -4,0 z M 196,100 l 4,0 0,4 -4,0 z M 200,100 l 4,0 0,4 -4,0 z M 204,100 l 4,0 0,4 -4,0 z M 212,100 l 4,0 0,4 -4,0 z M 8,104 l 4,0 0,4 -4,0 z M 12,104 l 4,0 0,4 -4,0 z M 20,104 l 4,0 0,4 -4,0 z M 36,104 l 4,0 0,4 -4,0 z M 48,104 l 4,0 0,4 -4,0 z M 56,104 l 4,0 0,4 -4,0 z M 64,104 l 4,0 0,4 -4,0 z M 76,104 l 4,0 0,4 -4,0 z M 80,104 l 4,0 0,4 -4,0 z M 84,104 l 4,0 0,4 -4,0 z M 88,104 l 4,0 0,4 -4,0 z M 96,104 l 4,0 0,4 -4,0 z M 100,104 l 4,0 0,4 -4,0 z M 116,104 l 4,0 0,4 -4,0 z M 120,104 l 4,0 0,4 -4,0 z M 124,104 l 4,0 0,4 -4,0 z M 128,104 l 4,0 0,4 -4,0 z M 144,104 l 4,0 0,4 -4,0 z M 148,104 l 4,0 0,4 -4,0 z M 152,104 l 4,0 0,4 -4,0 z M 160,104 l 4,0 0,4 -4,0 z M 164,104 l 4,0 0,4 -4,0 z M 168,104 l 4,0 0,4 -4,0 z M 172,104 l 4,0 0,4 -4,0 z M 176,104 l 4,0 0,4 -4,0 z M 180,104 l 4,0 0,4 -4,0 z M 196,104 l 4,0 0,4 -4,0 z M 204,104 l 4,0 0,4 -4,0 z M 208,104 l 4,0 0,4 -4,0 z M 4,108 l 4,0 0,4 -4,0 z M 12,108 l 4,0 0,4 -4,0 z M 16,108 l 4,0 0,4 -4,0 z M 20,108 l 4,0 0,4 -4,0 z M 28,108 l 4,0 0,4 -4,0 z M 36,108 l 4,0 0,4 -4,0 z M 44,108 l 4,0 0,4 -4,0 z M 52,108 l 4,0 0,4 -4,0 z M 76,108 l 4,0 0,4 -4,0 z M 84,108 l 4,0 0,4 -4,0 z M 88,108 l 4,0 0,4 -4,0 z M 96,108 l 4,0 0,4 -4,0 z M 100,108 l 4,0 0,4 -4,0 z M 108,108 l 4,0 0,4 -4,0 z M 116,108 l 4,0 0,4 -4,0 z M 136,108 l 4,0 0,4 -4,0 z M 140,108 l 4,0 0,4 -4,0 z M 144,108 l 4,0 0,4 -4,0 z M 148,108 l 4,0 0,4 -4,0 z M 156,108 l 4,0 0,4 -4,0 z M 164,108 l 4,0 0,4 -4,0 z M 176,108 l 4,0 0,4 -4,0 z M 180,108 l 4,0 0,4 -4,0 z M 188,108 l 4,0 0,4 -4,0 z M 196,108 l 4,0 0,4 -4,0 z M 4,112 l 4,0 0,4 -4,0 z M 8,112 l 4,0 0,4 -4,0 z M 12,112 l 4,0 0,4 -4,0 z M 20,112 l 4,0 0,4 -4,0 z M 36,112 l 4,0 0,4 -4,0 z M 40,112 l 4,0 0,4 -4,0 z M 44,112 l 4,0 0,4 -4,0 z M 52,112 l 4,0 0,4 -4,0 z M 60,112 l 4,0 0,4 -4,0 z M 64,112 l 4,0 0,4 -4,0 z M 80,112 l 4,0 0,4 -4,0 z M 84,112 l 4,0 0,4 -4,0 z M 88,112 l 4,0 0,4 -4,0 z M 92,112 l 4,0 0,4 -4,0 z M 96,112 l 4,0 0,4 -4,0 z M 100,112 l 4,0 0,4 -4,0 z M 116,112 l 4,0 0,4 -4,0 z M 120,112 l 4,0 0,4 -4,0 z M 124,112 l 4,0 0,4 -4,0 z M 132,112 l 4,0 0,4 -4,0 z M 140,112 l 4,0 0,4 -4,0 z M 144,112 l 4,0 0,4 -4,0 z M 160,112 l 4,0 0,4 -4,0 z M 164,112 l 4,0 0,4 -4,0 z M 168,112 l 4,0 0,4 -4,0 z M 180,112 l 4,0 0,4 -4,0 z M 196,112 l 4,0 0,4 -4,0 z M 200,112 l 4,0 0,4 -4,0 z M 208,112 l 4,0 0,4 -4,0 z M 212,112 l 4,0 0,4 -4,0 z M 4,116 l 4,0 0,4 -4,0 z M 12,116 l 4,0 0,4 -4,0 z M 20,116 l 4,0 0,4 -4,0 z M 24,116 l 4,0 0,4 -4,0 z M 28,116 l 4,0 0,4 -4,0 z M 32,116 l 4,0 0,4 -4,0 z M 36,116 l 4,0 0,4 -4,0 z M 40,116 l 4,0 0,4 -4,0 z M 44,116 l 4,0 0,4 -4,0 z M 64,116 l 4,0 0,4 -4,0 z M 68,116 l 4,0 0,4 -4,0 z M 72,116 l 4,0 0,4 -4,0 z M 76,116 l 4,0 0,4 -4,0 z M 80,116 l 4,0 0,4 -4,0 z M 84,116 l 4,0 0,4 -4,0 z M 96,116 l 4,0 0,4 -4,0 z M 100,116 l 4,0 0,4 -4,0 z M 104,116 l 4,0 0,4 -4,0 z M 108,116 l 4,0 0,4 -4,0 z M 112,116 l 4,0 0,4 -4,0 z M 116,116 l 4,0 0,4 -4,0 z M 124,116 l 4,0 0,4 -4,0 z M 128,116 l 4,0 0,4 -4,0 z M 132,116 l 4,0 0,4 -4,0 z M 136,116 l 4,0 0,4 -4,0 z M 140,116 l 4,0 0,4 -4,0 z M 144,116 l 4,0 0,4 -4,0 z M 148,116 l 4,0 0,4 -4,0 z M 152,116 l 4,0 0,4 -4,0 z M 156,116 l 4,0 0,4 -4,0 z M 176,116 l 4,0 0,4 -4,0 z M 180,116 l 4,0 0,4 -4,0 z M 184,116 l 4,0 0,4 -4,0 z M 188,116 l 4,0 0,4 -4,0 z M 192,116 l 4,0 0,4 -4,0 z M 196,116 l 4,0 0,4 -4,0 z M 200,116 l 4,0 0,4 -4,0 z M 204,116 l 4,0 0,4 -4,0 z M 208,116 l 4,0 0,4 -4,0 z M 4,120 l 4,0 0,4 -4,0 z M 20,120 l 4,0 0,4 -4,0 z M 32,120 l 4,0 0,4 -4,0 z M 48,120 l 4,0 0,4 -4,0 z M 52,120 l 4,0 0,4 -4,0 z M 60,120 l 4,0 0,4 -4,0 z M 64,120 l 4,0 0,4 -4,0 z M 72,120 l 4,0 0,4 -4,0 z M 80,120 l 4,0 0,4 -4,0 z M 88,120 l 4,0 0,4 -4,0 z M 92,120 l 4,0 0,4 -4,0 z M 96,120 l 4,0 0,4 -4,0 z M 108,120 l 4,0 0,4 -4,0 z M 112,120 l 4,0 0,4 -4,0 z M 116,120 l 4,0 0,4 -4,0 z M 120,120 l 4,0 0,4 -4,0 z M 152,120 l 4,0 0,4 -4,0 z M 160,120 l 4,0 0,4 -4,0 z M 168,120 l 4,0 0,4 -4,0 z M 172,120 l 4,0 0,4 -4,0 z M 176,120 l 4,0 0,4 -4,0 z M 180,120 l 4,0 0,4 -4,0 z M 184,120 l 4,0 0,4 -4,0 z M 196,120 l 4,0 0,4 -4,0 z M 200,120 l 4,0 0,4 -4,0 z M 208,120 l 4,0 0,4 -4,0 z M 212,120 l 4,0 0,4 -4,0 z M 4,124 l 4,0 0,4 -4,0 z M 8,124 l 4,0 0,4 -4,0 z M 24,124 l 4,0 0,4 -4,0 z M 28,124 l 4,0 0,4 -4,0 z M 32,124 l 4,0 0,4 -4,0 z M 44,124 l 4,0 0,4 -4,0 z M 56,124 l 4,0 0,4 -4,0 z M 60,124 l 4,0 0,4 -4,0 z M 64,124 l 4,0 0,4 -4,0 z M 68,124 l 4,0 0,4 -4,0 z M 76,124 l 4,0 0,4 -4,0 z M 84,124 l 4,0 0,4 -4,0 z M 92,124 l 4,0 0,4 -4,0 z M 100,124 l 4,0 0,4 -4,0 z M 108,124 l 4,0 0,4 -4,0 z M 124,124 l 4,0 0,4 -4,0 z M 132,124 l 4,0 0,4 -4,0 z M 136,124 l 4,0 0,4 -4,0 z M 144,124 l 4,0 0,4 -4,0 z M 156,124 l 4,0 0,4 -4,0 z M 160,124 l 4,0 0,4 -4,0 z M 164,124 l 4,0 0,4 -4,0 z M 176,124 l 4,0 0,4 -4,0 z M 16,128 l 4,0 0,4 -4,0 z M 32,128 l 4,0 0,4 -4,0 z M 36,128 l 4,0 0,4 -4,0 z M 48,128 l 4,0 0,4 -4,0 z M 52,128 l 4,0 0,4 -4,0 z M 60,128 l 4,0 0,4 -4,0 z M 64,128 l 4,0 0,4 -4,0 z M 68,128 l 4,0 0,4 -4,0 z M 72,128 l 4,0 0,4 -4,0 z M 76,128 l 4,0 0,4 -4,0 z M 88,128 l 4,0 0,4 -4,0 z M 104,128 l 4,0 0,4 -4,0 z M 116,128 l 4,0 0,4 -4,0 z M 120,128 l 4,0 0,4 -4,0 z M 132,128 l 4,0 0,4 -4,0 z M 136,128 l 4,0 0,4 -4,0 z M 152,128 l 4,0 0,4 -4,0 z M 160,128 l 4,0 0,4 -4,0 z M 164,128 l 4,0 0,4 -4,0 z M 172,128 l 4,0 0,4 -4,0 z M 176,128 l 4,0 0,4 -4,0 z M 180,128 l 4,0 0,4 -4,0 z M 188,128 l 4,0 0,4 -4,0 z M 200,128 l 4,0 0,4 -4,0 z M 208,128 l 4,0 0,4 -4,0 z M 212,128 l 4,0 0,4 -4,0 z M 4,132 l 4,0 0,4 -4,0 z M 16,132 l 4,0 0,4 -4,0 z M 28,132 l 4,0 0,4 -4,0 z M 32,132 l 4,0 0,4 -4,0 z M 36,132 l 4,0 0,4 -4,0 z M 40,132 l 4,0 0,4 -4,0 z M 44,132 l 4,0 0,4 -4,0 z M 52,132 l 4,0 0,4 -4,0 z M 56,132 l 4,0 0,4 -4,0 z M 60,132 l 4,0 0,4 -4,0 z M 64,132 l 4,0 0,4 -4,0 z M 76,132 l 4,0 0,4 -4,0 z M 96,132 l 4,0 0,4 -4,0 z M 100,132 l 4,0 0,4 -4,0 z M 104,132 l 4,0 0,4 -4,0 z M 112,132 l 4,0 0,4 -4,0 z M 116,132 l 4,0 0,4 -4,0 z M 128,132 l 4,0 0,4 -4,0 z M 144,132 l 4,0 0,4 -4,0 z M 148,132 l 4,0 0,4 -4,0 z M 168,132 l 4,0 0,4 -4,0 z M 184,132 l 4,0 0,4 -4,0 z M 188,132 l 4,0 0,4 -4,0 z M 204,132 l 4,0 0,4 -4,0 z M 208,132 l 4,0 0,4 -4,0 z M 4,136 l 4,0 0,4 -4,0 z M 20,136 l 4,0 0,4 -4,0 z M 48,136 l 4,0 0,4 -4,0 z M 52,136 l 4,0 0,4 -4,0 z M 68,136 l 4,0 0,4 -4,0 z M 72,136 l 4,0 0,4 -4,0 z M 76,136 l 4,0 0,4 -4,0 z M 88,136 l 4,0 0,4 -4,0 z M 96,136 l 4,0 0,4 -4,0 z M 100,136 l 4,0 0,4 -4,0 z M 108,136 l 4,0 0,4 -4,0 z M 116,136 l 4,0 0,4 -4,0 z M 120,136 l 4,0 0,4 -4,0 z M 124,136 l 4,0 0,4 -4,0 z M 132,136 l 4,0 0,4 -4,0 z M 148,136 l 4,0 0,4 -4,0 z M 168,136 l 4,0 0,4 -4,0 z M 172,136 l 4,0 0,4 -4,0 z M 196,136 l 4,0 0,4 -4,0 z M 200,136 l 4,0 0,4 -4,0 z M 208,136 l 4,0 0,4 -4,0 z M 212,136 l 4,0 0,4 -4,0 z M 8,140 l 4,0 0,4 -4,0 z M 12,140 l 4,0 0,4 -4,0 z M 16,140 l 4,0 0,4 -4,0 z M 20,140 l 4,0 0,4 -4,0 z M 28,140 l 4,0 0,4 -4,0 z M 40,140 l 4,0 0,4 -4,0 z M 44,140 l 4,0 0,4 -4,0 z M 48,140 l 4,0 0,4 -4,0 z M 52,140 l 4,0 0,4 -4,0 z M 56,140 l 4,0 0,4 -4,0 z M 60,140 l 4,0 0,4 -4,0 z M 64,140 l 4,0 0,4 -4,0 z M 68,140 l 4,0 0,4 -4,0 z M 72,140 l 4,0 0,4 -4,0 z M 76,140 l 4,0 0,4 -4,0 z M 88,140 l 4,0 0,4 -4,0 z M 108,140 l 4,0 0,4 -4,0 z M 112,140 l 4,0 0,4 -4,0 z M 116,140 l 4,0 0,4 -4,0 z M 140,140 l 4,0 0,4 -4,0 z M 144,140 l 4,0 0,4 -4,0 z M 148,140 l 4,0 0,4 -4,0 z M 156,140 l 4,0 0,4 -4,0 z M 160,140 l 4,0 0,4 -4,0 z M 164,140 l 4,0 0,4 -4,0 z M 176,140 l 4,0 0,4 -4,0 z M 184,140 l 4,0 0,4 -4,0 z M 208,140 l 4,0 0,4 -4,0 z M 4,144 l 4,0 0,4 -4,0 z M 16,144 l 4,0 0,4 -4,0 z M 20,144 l 4,0 0,4 -4,0 z M 24,144 l 4,0 0,4 -4,0 z M 40,144 l 4,0 0,4 -4,0 z M 44,144 l 4,0 0,4 -4,0 z M 52,144 l 4,0 0,4 -4,0 z M 68,144 l 4,0 0,4 -4,0 z M 76,144 l 4,0 0,4 -4,0 z M 80,144 l 4,0 0,4 -4,0 z M 100,144 l 4,0 0,4 -4,0 z M 132,144 l 4,0 0,4 -4,0 z M 152,144 l 4,0 0,4 -4,0 z M 160,144 l 4,0 0,4 -4,0 z M 164,144 l 4,0 0,4 -4,0 z M 172,144 l 4,0 0,4 -4,0 z M 176,144 l 4,0 0,4 -4,0 z M 188,144 l 4,0 0,4 -4,0 z M 200,144 l 4,0 0,4 -4,0 z M 212,144 l 4,0 0,4 -4,0 z M 8,148 l 4,0 0,4 -4,0 z M 12,148 l 4,0 0,4 -4,0 z M 20,148 l 4,0 0,4 -4,0 z M 28,148 l 4,0 0,4 -4,0 z M 32,148 l 4,0 0,4 -4,0 z M 40,148 l 4,0 0,4 -4,0 z M 44,148 l 4,0 0,4 -4,0 z M 68,148 l 4,0 0,4 -4,0 z M 72,148 l 4,0 0,4 -4,0 z M 76,148 l 4,0 0,4 -4,0 z M 80,148 l 4,0 0,4 -4,0 z M 84,148 l 4,0 0,4 -4,0 z M 104,148 l 4,0 0,4 -4,0 z M 108,148 l 4,0 0,4 -4,0 z M 112,148 l 4,0 0,4 -4,0 z M 128,148 l 4,0 0,4 -4,0 z M 132,148 l 4,0 0,4 -4,0 z M 136,148 l 4,0 0,4 -4,0 z M 140,148 l 4,0 0,4 -4,0 z M 144,148 l 4,0 0,4 -4,0 z M 148,148 l 4,0 0,4 -4,0 z M 152,148 l 4,0 0,4 -4,0 z M 168,148 l 4,0 0,4 -4,0 z M 180,148 l 4,0 0,4 -4,0 z M 184,148 l 4,0 0,4 -4,0 z M 192,148 l 4,0 0,4 -4,0 z M 200,148 l 4,0 0,4 -4,0 z M 204,148 l 4,0 0,4 -4,0 z M 208,148 l 4,0 0,4 -4,0 z M 212,148 l 4,0 0,4 -4,0 z M 4,152 l 4,0 0,4 -4,0 z M 16,152 l 4,0 0,4 -4,0 z M 20,152 l 4,0 0,4 -4,0 z M 32,152 l 4,0 0,4 -4,0 z M 44,152 l 4,0 0,4 -4,0 z M 48,152 l 4,0 0,4 -4,0 z M 60,152 l 4,0 0,4 -4,0 z M 64,152 l 4,0 0,4 -4,0 z M 72,152 l 4,0 0,4 -4,0 z M 80,152 l 4,0 0,4 -4,0 z M 88,152 l 4,0 0,4 -4,0 z M 92,152 l 4,0 0,4 -4,0 z M 104,152 l 4,0 0,4 -4,0 z M 116,152 l 4,0 0,4 -4,0 z M 120,152 l 4,0 0,4 -4,0 z M 132,152 l 4,0 0,4 -4,0 z M 136,152 l 4,0 0,4 -4,0 z M 144,152 l 4,0 0,4 -4,0 z M 152,152 l 4,0 0,4 -4,0 z M 164,152 l 4,0 0,4 -4,0 z M 168,152 l 4,0 0,4 -4,0 z M 172,152 l 4,0 0,4 -4,0 z M 176,152 l 4,0 0,4 -4,0 z M 180,152 l 4,0 0,4 -4,0 z M 184,152 l 4,0 0,4 -4,0 z M 196,152 l 4,0 0,4 -4,0 z M 200,152 l 4,0 0,4 -4,0 z M 212,152 l 4,0 0,4 -4,0 z M 4,156 l 4,0 0,4 -4,0 z M 8,156 l 4,0 0,4 -4,0 z M 12,156 l 4,0 0,4 -4,0 z M 20,156 l 4,0 0,4 -4,0 z M 24,156 l 4,0 0,4 -4,0 z M 28,156 l 4,0 0,4 -4,0 z M 32,156 l 4,0 0,4 -4,0 z M 36,156 l 4,0 0,4 -4,0 z M 40,156 l 4,0 0,4 -4,0 z M 44,156 l 4,0 0,4 -4,0 z M 48,156 l 4,0 0,4 -4,0 z M 64,156 l 4,0 0,4 -4,0 z M 68,156 l 4,0 0,4 -4,0 z M 72,156 l 4,0 0,4 -4,0 z M 80,156 l 4,0 0,4 -4,0 z M 84,156 l 4,0 0,4 -4,0 z M 96,156 l 4,0 0,4 -4,0 z M 100,156 l 4,0 0,4 -4,0 z M 104,156 l 4,0 0,4 -4,0 z M 108,156 l 4,0 0,4 -4,0 z M 120,156 l 4,0 0,4 -4,0 z M 124,156 l 4,0 0,4 -4,0 z M 128,156 l 4,0 0,4 -4,0 z M 132,156 l 4,0 0,4 -4,0 z M 136,156 l 4,0 0,4 -4,0 z M 140,156 l 4,0 0,4 -4,0 z M 144,156 l 4,0 0,4 -4,0 z M 152,156 l 4,0 0,4 -4,0 z M 156,156 l 4,0 0,4 -4,0 z M 160,156 l 4,0 0,4 -4,0 z M 176,156 l 4,0 0,4 -4,0 z M 180,156 l 4,0 0,4 -4,0 z M 200,156 l 4,0 0,4 -4,0 z M 4,160 l 4,0 0,4 -4,0 z M 24,160 l 4,0 0,4 -4,0 z M 40,160 l 4,0 0,4 -4,0 z M 44,160 l 4,0 0,4 -4,0 z M 48,160 l 4,0 0,4 -4,0 z M 56,160 l 4,0 0,4 -4,0 z M 64,160 l 4,0 0,4 -4,0 z M 80,160 l 4,0 0,4 -4,0 z M 84,160 l 4,0 0,4 -4,0 z M 88,160 l 4,0 0,4 -4,0 z M 96,160 l 4,0 0,4 -4,0 z M 100,160 l 4,0 0,4 -4,0 z M 108,160 l 4,0 0,4 -4,0 z M 124,160 l 4,0 0,4 -4,0 z M 128,160 l 4,0 0,4 -4,0 z M 132,160 l 4,0 0,4 -4,0 z M 136,160 l 4,0 0,4 -4,0 z M 144,160 l 4,0 0,4 -4,0 z M 152,160 l 4,0 0,4 -4,0 z M 156,160 l 4,0 0,4 -4,0 z M 160,160 l 4,0 0,4 -4,0 z M 164,160 l 4,0 0,4 -4,0 z M 176,160 l 4,0 0,4 -4,0 z M 180,160 l 4,0 0,4 -4,0 z M 188,160 l 4,0 0,4 -4,0 z M 196,160 l 4,0 0,4 -4,0 z M 200,160 l 4,0 0,4 -4,0 z M 4,164 l 4,0 0,4 -4,0 z M 12,164 l 4,0 0,4 -4,0 z M 28,164 l 4,0 0,4 -4,0 z M 32,164 l 4,0 0,4 -4,0 z M 40,164 l 4,0 0,4 -4,0 z M 44,164 l 4,0 0,4 -4,0 z M 48,164 l 4,0 0,4 -4,0 z M 52,164 l 4,0 0,4 -4,0 z M 72,164 l 4,0 0,4 -4,0 z M 80,164 l 4,0 0,4 -4,0 z M 92,164 l 4,0 0,4 -4,0 z M 96,164 l 4,0 0,4 -4,0 z M 104,164 l 4,0 0,4 -4,0 z M 112,164 l 4,0 0,4 -4,0 z M 116,164 l 4,0 0,4 -4,0 z M 120,164 l 4,0 0,4 -4,0 z M 128,164 l 4,0 0,4 -4,0 z M 136,164 l 4,0 0,4 -4,0 z M 140,164 l 4,0 0,4 -4,0 z M 144,164 l 4,0 0,4 -4,0 z M 148,164 l 4,0 0,4 -4,0 z M 152,164 l 4,0 0,4 -4,0 z M 156,164 l 4,0 0,4 -4,0 z M 172,164 l 4,0 0,4 -4,0 z M 180,164 l 4,0 0,4 -4,0 z M 184,164 l 4,0 0,4 -4,0 z M 192,164 l 4,0 0,4 -4,0 z M 200,164 l 4,0 0,4 -4,0 z M 204,164 l 4,0 0,4 -4,0 z M 4,168 l 4,0 0,4 -4,0 z M 12,168 l 4,0 0,4 -4,0 z M 16,168 l 4,0 0,4 -4,0 z M 32,168 l 4,0 0,4 -4,0 z M 36,168 l 4,0 0,4 -4,0 z M 40,168 l 4,0 0,4 -4,0 z M 44,168 l 4,0 0,4 -4,0 z M 52,168 l 4,0 0,4 -4,0 z M 56,168 l 4,0 0,4 -4,0 z M 64,168 l 4,0 0,4 -4,0 z M 76,168 l 4,0 0,4 -4,0 z M 92,168 l 4,0 0,4 -4,0 z M 96,168 l 4,0 0,4 -4,0 z M 100,168 l 4,0 0,4 -4,0 z M 108,168 l 4,0 0,4 -4,0 z M 112,168 l 4,0 0,4 -4,0 z M 120,168 l 4,0 0,4 -4,0 z M 124,168 l 4,0 0,4 -4,0 z M 152,168 l 4,0 0,4 -4,0 z M 164,168 l 4,0 0,4 -4,0 z M 168,168 l 4,0 0,4 -4,0 z M 172,168 l 4,0 0,4 -4,0 z M 180,168 l 4,0 0,4 -4,0 z M 196,168 l 4,0 0,4 -4,0 z M 200,168 l 4,0 0,4 -4,0 z M 212,168 l 4,0 0,4 -4,0 z M 4,172 l 4,0 0,4 -4,0 z M 8,172 l 4,0 0,4 -4,0 z M 16,172 l 4,0 0,4 -4,0 z M 20,172 l 4,0 0,4 -4,0 z M 24,172 l 4,0 0,4 -4,0 z M 28,172 l 4,0 0,4 -4,0 z M 40,172 l 4,0 0,4 -4,0 z M 44,172 l 4,0 0,4 -4,0 z M 52,172 l 4,0 0,4 -4,0 z M 56,172 l 4,0 0,4 -4,0 z M 60,172 l 4,0 0,4 -4,0 z M 84,172 l 4,0 0,4 -4,0 z M 92,172 l 4,0 0,4 -4,0 z M 104,172 l 4,0 0,4 -4,0 z M 108,172 l 4,0 0,4 -4,0 z M 112,172 l 4,0 0,4 -4,0 z M 116,172 l 4,0 0,4 -4,0 z M 120,172 l 4,0 0,4 -4,0 z M 128,172 l 4,0 0,4 -4,0 z M 136,172 l 4,0 0,4 -4,0 z M 140,172 l 4,0 0,4 -4,0 z M 144,172 l 4,0 0,4 -4,0 z M 156,172 l 4,0 0,4 -4,0 z M 184,172 l 4,0 0,4 -4,0 z M 192,172 l 4,0 0,4 -4,0 z M 8,176 l 4,0 0,4 -4,0 z M 12,176 l 4,0 0,4 -4,0 z M 32,176 l 4,0 0,4 -4,0 z M 44,176 l 4,0 0,4 -4,0 z M 52,176 l 4,0 0,4 -4,0 z M 56,176 l 4,0 0,4 -4,0 z M 64,176 l 4,0 0,4 -4,0 z M 72,176 l 4,0 0,4 -4,0 z M 76,176 l 4,0 0,4 -4,0 z M 84,176 l 4,0 0,4 -4,0 z M 88,176 l 4,0 0,4 -4,0 z M 92,176 l 4,0 0,4 -4,0 z M 96,176 l 4,0 0,4 -4,0 z M 108,176 l 4,0 0,4 -4,0 z M 120,176 l 4,0 0,4 -4,0 z M 128,176 l 4,0 0,4 -4,0 z M 136,176 l 4,0 0,4 -4,0 z M 140,176 l 4,0 0,4 -4,0 z M 160,176 l 4,0 0,4 -4,0 z M 164,176 l 4,0 0,4 -4,0 z M 168,176 l 4,0 0,4 -4,0 z M 176,176 l 4,0 0,4 -4,0 z M 184,176 l 4,0 0,4 -4,0 z M 188,176 l 4,0 0,4 -4,0 z M 196,176 l 4,0 0,4 -4,0 z M 200,176 l 4,0 0,4 -4,0 z M 208,176 l 4,0 0,4 -4,0 z M 212,176 l 4,0 0,4 -4,0 z M 16,180 l 4,0 0,4 -4,0 z M 28,180 l 4,0 0,4 -4,0 z M 32,180 l 4,0 0,4 -4,0 z M 36,180 l 4,0 0,4 -4,0 z M 44,180 l 4,0 0,4 -4,0 z M 56,180 l 4,0 0,4 -4,0 z M 64,180 l 4,0 0,4 -4,0 z M 68,180 l 4,0 0,4 -4,0 z M 72,180 l 4,0 0,4 -4,0 z M 76,180 l 4,0 0,4 -4,0 z M 84,180 l 4,0 0,4 -4,0 z M 96,180 l 4,0 0,4 -4,0 z M 100,180 l 4,0 0,4 -4,0 z M 104,180 l 4,0 0,4 -4,0 z M 108,180 l 4,0 0,4 -4,0 z M 112,180 l 4,0 0,4 -4,0 z M 116,180 l 4,0 0,4 -4,0 z M 124,180 l 4,0 0,4 -4,0 z M 128,180 l 4,0 0,4 -4,0 z M 136,180 l 4,0 0,4 -4,0 z M 140,180 l 4,0 0,4 -4,0 z M 144,180 l 4,0 0,4 -4,0 z M 148,180 l 4,0 0,4 -4,0 z M 152,180 l 4,0 0,4 -4,0 z M 156,180 l 4,0 0,4 -4,0 z M 168,180 l 4,0 0,4 -4,0 z M 180,180 l 4,0 0,4 -4,0 z M 184,180 l 4,0 0,4 -4,0 z M 188,180 l 4,0 0,4 -4,0 z M 192,180 l 4,0 0,4 -4,0 z M 196,180 l 4,0 0,4 -4,0 z M 200,180 l 4,0 0,4 -4,0 z M 204,180 l 4,0 0,4 -4,0 z M 208,180 l 4,0 0,4 -4,0 z M 36,184 l 4,0 0,4 -4,0 z M 44,184 l 4,0 0,4 -4,0 z M 48,184 l 4,0 0,4 -4,0 z M 60,184 l 4,0 0,4 -4,0 z M 64,184 l 4,0 0,4 -4,0 z M 72,184 l 4,0 0,4 -4,0 z M 80,184 l 4,0 0,4 -4,0 z M 92,184 l 4,0 0,4 -4,0 z M 100,184 l 4,0 0,4 -4,0 z M 116,184 l 4,0 0,4 -4,0 z M 120,184 l 4,0 0,4 -4,0 z M 136,184 l 4,0 0,4 -4,0 z M 144,184 l 4,0 0,4 -4,0 z M 148,184 l 4,0 0,4 -4,0 z M 152,184 l 4,0 0,4 -4,0 z M 164,184 l 4,0 0,4 -4,0 z M 168,184 l 4,0 0,4 -4,0 z M 172,184 l 4,0 0,4 -4,0 z M 180,184 l 4,0 0,4 -4,0 z M 196,184 l 4,0 0,4 -4,0 z M 204,184 l 4,0 0,4 -4,0 z M 212,184 l 4,0 0,4 -4,0 z M 4,188 l 4,0 0,4 -4,0 z M 8,188 l 4,0 0,4 -4,0 z M 12,188 l 4,0 0,4 -4,0 z M 16,188 l 4,0 0,4 -4,0 z M 20,188 l 4,0 0,4 -4,0 z M 24,188 l 4,0 0,4 -4,0 z M 28,188 l 4,0 0,4 -4,0 z M 36,188 l 4,0 0,4 -4,0 z M 44,188 l 4,0 0,4 -4,0 z M 76,188 l 4,0 0,4 -4,0 z M 88,188 l 4,0 0,4 -4,0 z M 92,188 l 4,0 0,4 -4,0 z M 100,188 l 4,0 0,4 -4,0 z M 108,188 l 4,0 0,4 -4,0 z M 116,188 l 4,0 0,4 -4,0 z M 124,188 l 4,0 0,4 -4,0 z M 132,188 l 4,0 0,4 -4,0 z M 136,188 l 4,0 0,4 -4,0 z M 152,188 l 4,0 0,4 -4,0 z M 156,188 l 4,0 0,4 -4,0 z M 164,188 l 4,0 0,4 -4,0 z M 176,188 l 4,0 0,4 -4,0 z M 180,188 l 4,0 0,4 -4,0 z M 188,188 l 4,0 0,4 -4,0 z M 196,188 l 4,0 0,4 -4,0 z M 4,192 l 4,0 0,4 -4,0 z M 28,192 l 4,0 0,4 -4,0 z M 44,192 l 4,0 0,4 -4,0 z M 72,192 l 4,0 0,4 -4,0 z M 76,192 l 4,0 0,4 -4,0 z M 88,192 l 4,0 0,4 -4,0 z M 92,192 l 4,0 0,4 -4,0 z M 96,192 l 4,0 0,4 -4,0 z M 100,192 l 4,0 0,4 -4,0 z M 116,192 l 4,0 0,4 -4,0 z M 128,192 l 4,0 0,4 -4,0 z M 160,192 l 4,0 0,4 -4,0 z M 164,192 l 4,0 0,4 -4,0 z M 172,192 l 4,0 0,4 -4,0 z M 180,192 l 4,0 0,4 -4,0 z M 196,192 l 4,0 0,4 -4,0 z M 200,192 l 4,0 0,4 -4,0 z M 208,192 l 4,0 0,4 -4,0 z M 212,192 l 4,0 0,4 -4,0 z M 4,196 l 4,0 0,4 -4,0 z M 12,196 l 4,0 0,4 -4,0 z M 16,196 l 4,0 0,4 -4,0 z M 20,196 l 4,0 0,4 -4,0 z M 28,196 l 4,0 0,4 -4,0 z M 36,196 l 4,0 0,4 -4,0 z M 44,196 l 4,0 0,4 -4,0 z M 52,196 l 4,0 0,4 -4,0 z M 56,196 l 4,0 0,4 -4,0 z M 60,196 l 4,0 0,4 -4,0 z M 64,196 l 4,0 0,4 -4,0 z M 76,196 l 4,0 0,4 -4,0 z M 80,196 l 4,0 0,4 -4,0 z M 84,196 l 4,0 0,4 -4,0 z M 88,196 l 4,0 0,4 -4,0 z M 92,196 l 4,0 0,4 -4,0 z M 96,196 l 4,0 0,4 -4,0 z M 100,196 l 4,0 0,4 -4,0 z M 104,196 l 4,0 0,4 -4,0 z M 108,196 l 4,0 0,4 -4,0 z M 112,196 l 4,0 0,4 -4,0 z M 116,196 l 4,0 0,4 -4,0 z M 120,196 l 4,0 0,4 -4,0 z M 124,196 l 4,0 0,4 -4,0 z M 128,196 l 4,0 0,4 -4,0 z M 140,196 l 4,0 0,4 -4,0 z M 144,196 l 4,0 0,4 -4,0 z M 148,196 l 4,0 0,4 -4,0 z M 152,196 l 4,0 0,4 -4,0 z M 156,196 l 4,0 0,4 -4,0 z M 168,196 l 4,0 0,4 -4,0 z M 172,196 l 4,0 0,4 -4,0 z M 176,196 l 4,0 0,4 -4,0 z M 180,196 l 4,0 0,4 -4,0 z M 184,196 l 4,0 0,4 -4,0 z M 188,196 l 4,0 0,4 -4,0 z M 192,196 l 4,0 0,4 -4,0 z M 196,196 l 4,0 0,4 -4,0 z M 200,196 l 4,0 0,4 -4,0 z M 204,196 l 4,0 0,4 -4,0 z M 208,196 l 4,0 0,4 -4,0 z M 4,200 l 4,0 0,4 -4,0 z M 12,200 l 4,0 0,4 -4,0 z M 16,200 l 4,0 0,4 -4,0 z M 20,200 l 4,0 0,4 -4,0 z M 28,200 l 4,0 0,4 -4,0 z M 36,200 l 4,0 0,4 -4,0 z M 52,200 l 4,0 0,4 -4,0 z M 56,200 l 4,0 0,4 -4,0 z M 68,200 l 4,0 0,4 -4,0 z M 72,200 l 4,0 0,4 -4,0 z M 76,200 l 4,0 0,4 -4,0 z M 80,200 l 4,0 0,4 -4,0 z M 84,200 l 4,0 0,4 -4,0 z M 92,200 l 4,0 0,4 -4,0 z M 104,200 l 4,0 0,4 -4,0 z M 108,200 l 4,0 0,4 -4,0 z M 116,200 l 4,0 0,4 -4,0 z M 124,200 l 4,0 0,4 -4,0 z M 128,200 l 4,0 0,4 -4,0 z M 144,200 l 4,0 0,4 -4,0 z M 152,200 l 4,0 0,4 -4,0 z M 160,200 l 4,0 0,4 -4,0 z M 164,200 l 4,0 0,4 -4,0 z M 168,200 l 4,0 0,4 -4,0 z M 172,200 l 4,0 0,4 -4,0 z M 180,200 l 4,0 0,4 -4,0 z M 184,200 l 4,0 0,4 -4,0 z M 208,200 l 4,0 0,4 -4,0 z M 212,200 l 4,0 0,4 -4,0 z M 4,204 l 4,0 0,4 -4,0 z M 12,204 l 4,0 0,4 -4,0 z M 16,204 l 4,0 0,4 -4,0 z M 20,204 l 4,0 0,4 -4,0 z M 28,204 l 4,0 0,4 -4,0 z M 36,204 l 4,0 0,4 -4,0 z M 44,204 l 4,0 0,4 -4,0 z M 52,204 l 4,0 0,4 -4,0 z M 56,204 l 4,0 0,4 -4,0 z M 60,204 l 4,0 0,4 -4,0 z M 64,204 l 4,0 0,4 -4,0 z M 68,204 l 4,0 0,4 -4,0 z M 76,204 l 4,0 0,4 -4,0 z M 84,204 l 4,0 0,4 -4,0 z M 88,204 l 4,0 0,4 -4,0 z M 96,204 l 4,0 0,4 -4,0 z M 100,204 l 4,0 0,4 -4,0 z M 104,204 l 4,0 0,4 -4,0 z M 116,204 l 4,0 0,4 -4,0 z M 128,204 l 4,0 0,4 -4,0 z M 136,204 l 4,0 0,4 -4,0 z M 140,204 l 4,0 0,4 -4,0 z M 144,204 l 4,0 0,4 -4,0 z M 156,204 l 4,0 0,4 -4,0 z M 160,204 l 4,0 0,4 -4,0 z M 168,204 l 4,0 0,4 -4,0 z M 176,204 l 4,0 0,4 -4,0 z M 188,204 l 4,0 0,4 -4,0 z M 196,204 l 4,0 0,4 -4,0 z M 208,204 l 4,0 0,4 -4,0 z M 212,204 l 4,0 0,4 -4,0 z M 4,208 l 4,0 0,4 -4,0 z M 28,208 l 4,0 0,4 -4,0 z M 36,208 l 4,0 0,4 -4,0 z M 44,208 l 4,0 0,4 -4,0 z M 48,208 l 4,0 0,4 -4,0 z M 56,208 l 4,0 0,4 -4,0 z M 68,208 l 4,0 0,4 -4,0 z M 76,208 l 4,0 0,4 -4,0 z M 84,208 l 4,0 0,4 -4,0 z M 92,208 l 4,0 0,4 -4,0 z M 108,208 l 4,0 0,4 -4,0 z M 116,208 l 4,0 0,4 -4,0 z M 120,208 l 4,0 0,4 -4,0 z M 124,208 l 4,0 0,4 -4,0 z M 136,208 l 4,0 0,4 -4,0 z M 140,208 l 4,0 0,4 -4,0 z M 160,208 l 4,0 0,4 -4,0 z M 164,208 l 4,0 0,4 -4,0 z M 168,208 l 4,0 0,4 -4,0 z M 180,208 l 4,0 0,4 -4,0 z M 184,208 l 4,0 0,4 -4,0 z M 196,208 l 4,0 0,4 -4,0 z M 200,208 l 4,0 0,4 -4,0 z M 208,208 l 4,0 0,4 -4,0 z M 4,212 l 4,0 0,4 -4,0 z M 8,212 l 4,0 0,4 -4,0 z M 12,212 l 4,0 0,4 -4,0 z M 16,212 l 4,0 0,4 -4,0 z M 20,212 l 4,0 0,4 -4,0 z M 24,212 l 4,0 0,4 -4,0 z M 28,212 l 4,0 0,4 -4,0 z M 36,212 l 4,0 0,4 -4,0 z M 44,212 l 4,0 0,4 -4,0 z M 52,212 l 4,0 0,4 -4,0 z M 56,212 l 4,0 0,4 -4,0 z M 60,212 l 4,0 0,4 -4,0 z M 64,212 l 4,0 0,4 -4,0 z M 68,212 l 4,0 0,4 -4,0 z M 72,212 l 4,0 0,4 -4,0 z M 76,212 l 4,0 0,4 -4,0 z M 80,212 l 4,0 0,4 -4,0 z M 84,212 l 4,0 0,4 -4,0 z M 100,212 l 4,0 0,4 -4,0 z M 104,212 l 4,0 0,4 -4,0 z M 108,212 l 4,0 0,4 -4,0 z M 116,212 l 4,0 0,4 -4,0 z M 128,212 l 4,0 0,4 -4,0 z M 136,212 l 4,0 0,4 -4,0 z M 144,212 l 4,0 0,4 -4,0 z M 148,212 l 4,0 0,4 -4,0 z M 152,212 l 4,0 0,4 -4,0 z M 156,212 l 4,0 0,4 -4,0 z M 160,212 l 4,0 0,4 -4,0 z M 168,212 l 4,0 0,4 -4,0 z M 172,212 l 4,0 0,4 -4,0 z M 176,212 l 4,0 0,4 -4,0 z M 180,212 l 4,0 0,4 -4,0 z M 188,212 l 4,0 0,4 -4,0 z M 192,212 l 4,0 0,4 -4,0 z M 196,212 l 4,0 0,4 -4,0 z M 200,212 l 4,0 0,4 -4,0 z M 204,212 l 4,0 0,4 -4,0 z " />
	</g>
</svg>
