<?xml version="1.0" encoding="UTF-8" standalone="no"?>
<svg
   viewBox="0 0 611.31677 265.98801"
   height="265.98801"
   width="611.31677"
   xml:space="preserve"
   id="svg2"
   version="1.1"
   sodipodi:docname="ENECO_eMobility_Logo.svg"
   inkscape:version="1.1 (c68e22c387, 2021-05-23)"
   xmlns:inkscape="http://www.inkscape.org/namespaces/inkscape"
   xmlns:sodipodi="http://sodipodi.sourceforge.net/DTD/sodipodi-0.dtd"
   xmlns="http://www.w3.org/2000/svg"
   xmlns:svg="http://www.w3.org/2000/svg"
   xmlns:rdf="http://www.w3.org/1999/02/22-rdf-syntax-ns#"
   xmlns:cc="http://creativecommons.org/ns#"
   xmlns:dc="http://purl.org/dc/elements/1.1/"><sodipodi:namedview
     id="namedview60"
     pagecolor="#ffffff"
     bordercolor="#666666"
     borderopacity="1.0"
     inkscape:pageshadow="2"
     inkscape:pageopacity="0.0"
     inkscape:pagecheckerboard="0"
     showgrid="false"
     fit-margin-top="0"
     fit-margin-left="0"
     fit-margin-right="0"
     fit-margin-bottom="0"
     inkscape:zoom="2.8816792"
     inkscape:cx="307.80664"
     inkscape:cy="22.209273"
     inkscape:window-width="3840"
     inkscape:window-height="2054"
     inkscape:window-x="-11"
     inkscape:window-y="-11"
     inkscape:window-maximized="1"
     inkscape:current-layer="svg2" /><metadata
     id="metadata8"><rdf:RDF><cc:Work
         rdf:about=""><dc:format>image/svg+xml</dc:format><dc:type
           rdf:resource="http://purl.org/dc/dcmitype/StillImage" /></cc:Work></rdf:RDF></metadata><defs
     id="defs6"><clipPath
       id="clipPath18"
       clipPathUnits="userSpaceOnUse"><path
         id="path16"
         d="M 0,256.5 H 513 V 0 H 0 Z" /></clipPath><radialGradient
       id="radialGradient44"
       spreadMethod="pad"
       gradientTransform="matrix(41.510696,0,0,-41.510696,92.613586,146.54045)"
       gradientUnits="userSpaceOnUse"
       r="1"
       cy="0"
       cx="0"
       fy="0"
       fx="0"><stop
         id="stop36"
         offset="0"
         style="stop-opacity:1;stop-color:#ffe19b" /><stop
         id="stop38"
         offset="0.15513884"
         style="stop-opacity:1;stop-color:#ffe19b" /><stop
         id="stop40"
         offset="0.705882"
         style="stop-opacity:1;stop-color:#ee9a33" /><stop
         id="stop42"
         offset="1"
         style="stop-opacity:1;stop-color:#ee9a33" /></radialGradient><radialGradient
       id="radialGradient68"
       spreadMethod="pad"
       gradientTransform="matrix(62.265358,0,0,-62.265358,40.047523,128.83347)"
       gradientUnits="userSpaceOnUse"
       r="1"
       cy="0"
       cx="0"
       fy="0"
       fx="0"><stop
         id="stop60"
         offset="0"
         style="stop-opacity:1;stop-color:#fddb8e" /><stop
         id="stop62"
         offset="0.1364956"
         style="stop-opacity:1;stop-color:#fddb8e" /><stop
         id="stop64"
         offset="0.754011"
         style="stop-opacity:1;stop-color:#cd2125" /><stop
         id="stop66"
         offset="1"
         style="stop-opacity:1;stop-color:#cd2125" /></radialGradient><radialGradient
       id="radialGradient90"
       spreadMethod="pad"
       gradientTransform="matrix(34.593395,0,0,-34.593395,108.6062,63.101357)"
       gradientUnits="userSpaceOnUse"
       r="1"
       cy="0"
       cx="0"
       fy="0"
       fx="0"><stop
         id="stop84"
         offset="0"
         style="stop-opacity:1;stop-color:#f9d9c6" /><stop
         id="stop86"
         offset="0.705882"
         style="stop-opacity:1;stop-color:#ce1f3c" /><stop
         id="stop88"
         offset="1"
         style="stop-opacity:1;stop-color:#ce1f3c" /></radialGradient><radialGradient
       id="radialGradient112"
       spreadMethod="pad"
       gradientTransform="matrix(20.756018,0,0,-20.756018,83.475182,225.66484)"
       gradientUnits="userSpaceOnUse"
       r="1"
       cy="0"
       cx="0"
       fy="0"
       fx="0"><stop
         id="stop106"
         offset="0"
         style="stop-opacity:1;stop-color:#fbd5a2" /><stop
         id="stop108"
         offset="0.877005"
         style="stop-opacity:1;stop-color:#d64553" /><stop
         id="stop110"
         offset="1"
         style="stop-opacity:1;stop-color:#d64553" /></radialGradient><radialGradient
       id="radialGradient132"
       spreadMethod="pad"
       gradientTransform="matrix(27.669222,0,0,-27.669222,49.944168,187.26895)"
       gradientUnits="userSpaceOnUse"
       r="1"
       cy="0"
       cx="0"
       fy="0"
       fx="0"><stop
         id="stop128"
         offset="0"
         style="stop-opacity:1;stop-color:#f9cfa3" /><stop
         id="stop130"
         offset="1"
         style="stop-opacity:1;stop-color:#de6525" /></radialGradient></defs><g
     transform="matrix(1.3333333,0,0,-1.3333333,-28.405333,308.25599)"
     id="g10"><g
   id="g12"><g
     clip-path="url(#clipPath18)"
     id="g14"><g
       transform="translate(445.1406,103.2)"
       id="g20"><path
         id="path22"
         style="fill:#c51f4c;fill-opacity:1;fill-rule:nonzero;stroke:none"
         d="m 0,0 c -7.693,0 -9.708,1.879 -9.708,17.632 0,16.337 2.015,17.804 9.708,17.804 7.8,0 9.82,-1.467 9.82,-17.804 C 9.82,1.879 7.8,0 0,0 m 0,54.293 c -22.38,0 -34.356,-7.923 -34.356,-36.231 0,-28.436 11.693,-36.937 34.356,-36.937 22.893,0 34.651,8.501 34.651,36.937 C 34.651,46.37 22.77,54.293 0,54.293 m -262.321,-1.743 -5.327,22.639 h -58.994 V 15.717 c 0.117,-23.976 9.946,-32.471 28.185,-32.713 h 34.774 V 5.661 h -27.643 c -6.208,0.484 -9.557,3.965 -9.557,12.802 h 29.676 v 22.216 h -29.702 V 52.55 Z M -61.037,33.551 c 5.526,0 11.617,-1.638 15.264,-2.672 l 4.831,20.463 c -5.521,1.903 -14.817,2.951 -22.493,2.951 -20.383,0 -34.928,-8.053 -34.928,-36.231 0,-28.436 14.422,-36.937 34.928,-36.937 7.288,0 16.843,1.202 22.493,3.37 l -4.831,20.477 c -3.647,-1.337 -9.308,-2.946 -15.264,-2.946 -8.194,0 -12.649,1.461 -12.649,15.606 0,14.971 4.455,15.919 12.649,15.919 m -152.795,20.742 c -13.74,0 -28.189,-3.346 -37.458,-6.468 v -64.821 h 24.659 V 31.53 c 2.825,0.551 5.237,0.943 7.382,0.943 8.368,0 9.741,-3.252 9.741,-12.956 v -36.513 h 24.653 v 38.152 c 0,24.678 -10.12,33.137 -28.977,33.137 m 63.946,-31.11 c 0.436,7.794 3.982,13.72 10.703,13.72 6.628,0 11.376,-3.246 11.5,-12.713 z m 9.402,31.096 c -19.67,0 -33.178,-8.062 -33.178,-36.241 0,-28.441 15.646,-36.937 34.663,-36.937 8.494,0 18.856,1.45 25.731,3.771 l -4.289,18.162 c -5.012,-0.972 -13.466,-1.721 -18.214,-1.721 -8.077,0 -12.418,1.232 -12.672,8.484 h 40.042 c 2.568,37.631 -7.936,44.482 -32.083,44.482" /></g></g></g><g
   id="g24"><g
     id="g26"><g
       id="g32"><g
         id="g34"><path
           id="path46"
           style="fill:url(#radialGradient44);stroke:none"
           d="m 80.117,133.229 c 0,-13.463 10.908,-24.368 24.367,-24.368 v 0 c 13.457,0 24.368,10.905 24.368,24.368 v 0 c 0,13.46 -10.911,24.365 -24.368,24.365 v 0 c -13.459,0 -24.367,-10.905 -24.367,-24.365" /></g></g></g></g><g
   id="g48"><g
     id="g50"><g
       id="g56"><g
         id="g58"><path
           id="path70"
           style="fill:url(#radialGradient68);stroke:none"
           d="m 21.304,108.861 c 0,-20.188 16.366,-36.548 36.551,-36.548 v 0 c 20.184,0 36.549,16.36 36.549,36.548 v 0 c 0,20.185 -16.365,36.553 -36.549,36.553 v 0 c -20.185,0 -36.551,-16.368 -36.551,-36.553" /></g></g></g></g><g
   id="g72"><g
     id="g74"><g
       id="g80"><g
         id="g82"><path
           id="path92"
           style="fill:url(#radialGradient90);stroke:none"
           d="m 98.193,52.001 c 0,-11.21 9.092,-20.3 20.306,-20.3 v 0 c 11.212,0 20.307,9.09 20.307,20.3 v 0 c 0,11.222 -9.095,20.312 -20.307,20.312 v 0 c -11.214,0 -20.306,-9.09 -20.306,-20.312" /></g></g></g></g><g
   id="g94"><g
     id="g96"><g
       id="g102"><g
         id="g104"><path
           id="path114"
           style="fill:url(#radialGradient112);stroke:none"
           d="m 77.227,219.007 c 0,-6.727 5.454,-12.184 12.184,-12.184 v 0 c 6.73,0 12.182,5.457 12.182,12.184 v 0 c 0,6.73 -5.452,12.185 -12.182,12.185 v 0 c -6.73,0 -12.184,-5.455 -12.184,-12.185" /></g></g></g></g><g
   id="g116"><g
     id="g118"><g
       id="g124"><g
         id="g126"><path
           id="path134"
           style="fill:url(#radialGradient132);stroke:none"
           d="m 41.615,178.389 c 0,-8.967 7.269,-16.235 16.24,-16.235 v 0 c 8.975,0 16.244,7.268 16.244,16.235 v 0 c 0,8.978 -7.269,16.248 -16.244,16.248 v 0 c -8.971,0 -16.24,-7.27 -16.24,-16.248" /></g></g></g></g><text
   id="text138"
   style="font-variant:normal;font-weight:500;font-stretch:normal;font-size:36.1947px;font-family:'Etelka Medium Pro';-inkscape-font-specification:EtelkaMediumPro;writing-mode:lr-tb;fill:#c51f4c;fill-opacity:1;fill-rule:nonzero;stroke:none"
   transform="matrix(1,0,0,-1,320.4746,48.3887)"><tspan
     id="tspan136" /></text>
</g><text
     xml:space="preserve"
     style="font-style:normal;font-weight:normal;font-size:44.7408px;line-height:1.25;font-family:sans-serif;fill:#c40546;fill-opacity:1;stroke:none;stroke-width:1.11852"
     x="425.88873"
     y="228.53317"
     id="text4889"
     transform="scale(0.92786843,1.077739)"><tspan
       sodipodi:role="line"
       id="tspan4887"
       x="425.88873"
       y="228.53317"
       style="font-style:normal;font-variant:normal;font-weight:bold;font-stretch:normal;font-size:44.7408px;font-family:sans-serif;-inkscape-font-specification:'sans-serif, Bold';font-variant-ligatures:normal;font-variant-caps:normal;font-variant-numeric:normal;font-variant-east-asian:normal;fill:#c40546;fill-opacity:1;stroke-width:1.11852">eMobility</tspan></text></svg>
